<svg width="504" height="165" viewBox="0 0 504 165" fill="none" xmlns="http://www.w3.org/2000/svg">
<rect x="3.5" y="3.5" width="497" height="158" stroke="#000" stroke-width="7"/>
<path d="M119.783 57.12V76.72H110.503V65.52H96.4231V103.6H106.023V112H76.1831V103.6H85.7831V65.52H71.5431V76.72H62.2631V57.12H119.783ZM154.453 113.04C148.906 113.04 143.893 111.813 139.413 109.36C134.986 106.853 131.493 103.44 128.933 99.12C126.426 94.8 125.173 89.9467 125.173 84.56C125.173 79.1733 126.426 74.32 128.933 70C131.493 65.6267 135.013 62.2133 139.493 59.76C143.973 57.2533 148.959 56 154.453 56C159.893 56 164.826 57.2533 169.253 59.76C173.733 62.2133 177.226 65.6267 179.733 70C182.293 74.32 183.573 79.1733 183.573 84.56C183.573 89.8933 182.293 94.7467 179.733 99.12C177.226 103.44 173.733 106.853 169.253 109.36C164.826 111.813 159.893 113.04 154.453 113.04ZM154.453 104.4C157.973 104.4 161.093 103.547 163.813 101.84C166.586 100.08 168.719 97.68 170.213 94.64C171.706 91.6 172.453 88.24 172.453 84.56C172.453 80.8267 171.706 77.44 170.213 74.4C168.719 71.36 166.613 68.9867 163.893 67.28C161.173 65.52 158.026 64.64 154.453 64.64C150.773 64.64 147.546 65.52 144.773 67.28C142.053 69.04 139.946 71.44 138.453 74.48C136.959 77.4667 136.213 80.8267 136.213 84.56C136.213 88.3467 136.959 91.7333 138.453 94.72C139.946 97.7067 142.053 100.08 144.773 101.84C147.546 103.547 150.773 104.4 154.453 104.4ZM246.033 57.12V76.72H236.753V65.52H222.673V103.6H232.273V112H202.433V103.6H212.033V65.52H197.793V76.72H188.513V57.12H246.033ZM280.703 113.04C275.156 113.04 270.143 111.813 265.663 109.36C261.236 106.853 257.743 103.44 255.183 99.12C252.676 94.8 251.423 89.9467 251.423 84.56C251.423 79.1733 252.676 74.32 255.183 70C257.743 65.6267 261.263 62.2133 265.743 59.76C270.223 57.2533 275.209 56 280.703 56C286.143 56 291.076 57.2533 295.503 59.76C299.983 62.2133 303.476 65.6267 305.983 70C308.543 74.32 309.823 79.1733 309.823 84.56C309.823 89.8933 308.543 94.7467 305.983 99.12C303.476 103.44 299.983 106.853 295.503 109.36C291.076 111.813 286.143 113.04 280.703 113.04ZM280.703 104.4C284.223 104.4 287.343 103.547 290.063 101.84C292.836 100.08 294.969 97.68 296.463 94.64C297.956 91.6 298.703 88.24 298.703 84.56C298.703 80.8267 297.956 77.44 296.463 74.4C294.969 71.36 292.863 68.9867 290.143 67.28C287.423 65.52 284.276 64.64 280.703 64.64C277.023 64.64 273.796 65.52 271.023 67.28C268.303 69.04 266.196 71.44 264.703 74.48C263.209 77.4667 262.463 80.8267 262.463 84.56C262.463 88.3467 263.209 91.7333 264.703 94.72C266.196 97.7067 268.303 100.08 271.023 101.84C273.796 103.547 277.023 104.4 280.703 104.4ZM378.739 107.36C377.245 109.067 375.565 110.453 373.699 111.52C371.832 112.587 369.539 113.12 366.819 113.12C361.912 113.12 357.805 111.413 354.499 108C351.245 104.533 348.712 99.1733 346.899 91.92L346.099 89.36H336.259V103.68H345.619V112H316.019V103.6H325.619V65.52H316.019V57.12H348.339C354.792 57.12 359.912 58.56 363.699 61.44C367.539 64.2667 369.459 68.1867 369.459 73.2C369.459 77.36 368.232 80.7733 365.779 83.44C363.379 86.1067 359.939 87.8933 355.459 88.8L356.339 91.28C357.779 95.6533 359.405 98.7733 361.219 100.64C363.085 102.453 365.165 103.36 367.459 103.36C369.859 103.36 371.965 102.4 373.779 100.48L378.739 107.36ZM336.259 81.52H348.659C351.485 81.52 353.912 80.8267 355.939 79.44C357.965 78 358.979 75.92 358.979 73.2C358.979 70.6933 357.992 68.8 356.019 67.52C354.045 66.1867 351.592 65.52 348.659 65.52H336.259V81.52ZM442.673 103.6V112H415.553V103.6H423.953L419.953 93.2H398.113L394.113 103.6H403.313V112H376.593V103.6H384.113L400.353 65.44H393.473V57.12H425.553V65.44H418.593L434.993 103.6H442.673ZM417.073 85.68L409.233 65.44H408.833L400.993 85.68H417.073Z" fill="#000"/>
</svg>
